<svg xmlns="http://www.w3.org/2000/svg" xmlns:xlink="http://www.w3.org/1999/xlink" version="1.1" x="0px" y="0px" viewBox="0 0 64 80" style="enable-background:new 0 0 64 64;" xml:space="preserve"><g><path d="M39,35c3.309,0,6-2.691,6-6c0-2.219-1.214-4.156-3.01-5.194c-0.089-2.763-2.051-5.057-4.658-5.652   C37.759,17.164,38,16.1,38,15c0-4.411-3.589-8-8-8c-0.417,0-0.83,0.036-1.238,0.1C27.906,3.605,24.755,1,21,1   c-3.754,0-6.914,2.56-7.767,6.107C12.827,7.043,12.417,7,12,7c-4.411,0-8,3.589-8,8c0,1.419,0.384,2.811,1.092,4.027   C2.653,20.399,1,23.008,1,26c0,4.411,3.589,8,8,8c0.682,0,1.352-0.097,2-0.265V51c0,6.617,5.383,12,12,12s12-5.383,12-12V35H39z    M3,26c0-3.309,2.691-6,6-6v-2c-0.695,0-1.366,0.098-2.009,0.266C6.36,17.296,6,16.165,6,15c0-3.309,2.691-6,6-6   c1.734,0,3.384,0.75,4.524,2.059l1.508-1.314c-0.794-0.911-1.776-1.613-2.859-2.081C15.784,4.963,18.157,3,21,3   c3.309,0,6,2.691,6,6c0,1.5-0.556,2.935-1.566,4.042l1.478,1.348c1.326-1.454,2.062-3.333,2.084-5.299C29.326,9.036,29.661,9,30,9   c3.309,0,6,2.691,6,6c0,1.095-0.308,2.142-0.864,3.069c-0.277,0.04-0.548,0.096-0.811,0.173C33.31,16.27,31.286,15,29,15   c-2.316,0-4.325,1.321-5.325,3.246C23.135,18.089,22.576,18,22,18c-3.243,0-5.886,2.588-5.99,5.806C14.214,24.844,13,26.781,13,29   c0,0.455,0.055,0.897,0.152,1.324C12.039,31.392,10.555,32,9,32C5.691,32,3,29.309,3,26z M33,51c0,4.522-3.019,8.347-7.145,9.579   C28.565,55.027,30,48.894,30,42.704V40h-2v2.704c0,5.929-1.386,11.801-4,17.112V50h-2v9.816c-2.614-5.31-4-11.183-4-17.112V40h-2   v2.704c0,6.19,1.435,12.323,4.145,17.875C16.019,59.347,13,55.522,13,51V32.924c0.339-0.196,0.66-0.422,0.968-0.667   c1.037,1.597,2.811,2.667,4.838,2.733C19.844,36.786,21.781,38,24,38c3.309,0,6-2.691,6-6h-2c0,2.206-1.794,4-4,4s-4-1.794-4-4h-2   c0,0.3,0.029,0.592,0.072,0.88C16.315,32.459,15,30.885,15,29c0-2.206,1.794-4,4-4s4,1.794,4,4h2c0-3.309-2.691-6-6-6   c-0.3,0-0.592,0.029-0.88,0.072C18.541,21.315,20.115,20,22,20c0.367,0,0.721,0.063,1.066,0.159C23.027,20.434,23,20.714,23,21h2   c0-2.206,1.794-4,4-4c1.507,0,2.841,0.829,3.525,2.118C31,20.207,30,21.987,30,24h2c0-2.206,1.794-4,4-4   c1.885,0,3.459,1.315,3.88,3.072C39.592,23.029,39.3,23,39,23v2c2.206,0,4,1.794,4,4s-1.794,4-4,4h-4v-5h-2V51z"/><rect x="22" y="40" width="2" height="8"/><path d="M54.829,37c-0.831,0-1.643,0.137-2.42,0.389c0.859-2.906,2.574-5.495,4.966-7.408l1.469-1.177l-6.12-3.06l-1.021,1.277   c-2.382,2.978-3.696,6.716-3.702,10.53C47.102,37.201,46.15,37,45.171,37C40.666,37,37,40.666,37,45.172   c0,1.946,0.207,3.899,0.615,5.804l1.438,6.708C39.712,60.765,42.478,63,45.628,63c1.302,0,2.556-0.382,3.646-1.087   C49.512,61.966,49.753,62,50,62c0.253,0,0.499-0.037,0.741-0.091c1.08,0.695,2.343,1.091,3.63,1.091   c3.15,0,5.916-2.235,6.576-5.315l1.438-6.709C62.793,49.071,63,47.118,63,45.172C63,40.666,59.334,37,54.829,37z M50,37.576   c0-3.369,1.159-6.674,3.264-9.306l0.012-0.015l1.922,0.961c-2.536,2.348-4.276,5.416-5.013,8.8C50.123,38.014,50.063,38,50,38   V37.576z M45.628,61c-2.214,0-4.157-1.57-4.62-3.735l-1.438-6.709C39.192,48.789,39,46.978,39,45.172   C39,41.769,41.769,39,45.171,39c0.68,0,1.342,0.131,1.972,0.358C45.242,41.325,44,45.256,44,50c0,4.806,1.276,8.773,3.22,10.713   C46.712,60.896,46.178,61,45.628,61z M46,50c0-5.724,2.112-10,4-10s4,4.276,4,10s-2.112,10-4,10S46,55.724,46,50z M60.429,50.556   l-1.438,6.71C58.528,59.43,56.585,61,54.372,61c-0.545,0-1.084-0.102-1.594-0.284C54.723,58.776,56,54.808,56,50   c0-4.745-1.242-8.676-3.144-10.643C53.485,39.13,54.148,39,54.829,39C58.231,39,61,41.769,61,45.172   C61,46.978,60.808,48.789,60.429,50.556z"/><path d="M11.059,11.504l-0.504-0.336l-1.109,1.664l0.504,0.336C11.233,14.024,12,15.457,12,17h2   C14,14.786,12.9,12.731,11.059,11.504z"/><path d="M7,28.162V29h2v-0.838c0-1.46,0.931-2.751,2.316-3.213l-0.633-1.897C8.48,23.786,7,25.84,7,28.162z"/><path d="M22,11.829c0-1.557,0.606-3.021,1.707-4.122l-1.414-1.414C20.814,7.771,20,9.737,20,11.829V12h2V11.829z"/></g><text x="0" y="79" fill="#000000" font-size="5px" font-weight="bold" font-family="'Helvetica Neue', Helvetica, Arial-Unicode, Arial, Sans-serif">Created by Eucalyp</text><text x="0" y="84" fill="#000000" font-size="5px" font-weight="bold" font-family="'Helvetica Neue', Helvetica, Arial-Unicode, Arial, Sans-serif">from the Noun Project</text></svg>